<svg width="42" height="43" viewBox="0 0 42 43" fill="none" xmlns="http://www.w3.org/2000/svg">
    <g filter="url(#filter0_ddd_5371_35481)">
        <rect x="5" y="4" width="32" height="32" rx="16" fill="white"/>
        <path fill-rule="evenodd" clip-rule="evenodd"
              d="M20.3333 14.6667C17.7559 14.6667 15.6666 16.756 15.6666 19.3334C15.6666 21.9107 17.7559 24 20.3333 24C22.9106 24 24.9999 21.9107 24.9999 19.3334C24.9999 16.756 22.9106 14.6667 20.3333 14.6667ZM14.3333 19.3334C14.3333 16.0197 17.0195 13.3334 20.3333 13.3334C23.647 13.3334 26.3333 16.0197 26.3333 19.3334C26.3333 22.6471 23.647 25.3334 20.3333 25.3334C17.0195 25.3334 14.3333 22.6471 14.3333 19.3334Z"
              fill="#A7A7A7"/>
        <path fill-rule="evenodd" clip-rule="evenodd"
              d="M23.6286 22.6286C23.889 22.3683 24.3111 22.3683 24.5714 22.6286L27.4714 25.5286C27.7318 25.789 27.7318 26.2111 27.4714 26.4714C27.2111 26.7318 26.789 26.7318 26.5286 26.4714L23.6286 23.5714C23.3683 23.3111 23.3683 22.889 23.6286 22.6286Z"
              fill="#A7A7A7"/>
    </g>
    <defs>
        <filter id="filter0_ddd_5371_35481" x="0" y="0" width="42" height="43" color-interpolation-filters="sRGB">
            <feFlood flood-opacity="0" result="BackgroundImageFix"/>
            <feColorMatrix in="SourceAlpha" values="0 0 0 0 0 0 0 0 0 0 0 0 0 0 0 0 0 0 127 0" result="hardAlpha"/>
            <feOffset dy="1"/>
            <feGaussianBlur stdDeviation="2.5"/>
            <feColorMatrix values="0 0 0 0 0.748125 0 0 0 0 0.767812 0 0 0 0 0.7875 0 0 0 0.24 0"/>
            <feBlend in2="BackgroundImageFix" result="effect1_dropShadow_5371_35481"/>
            <feColorMatrix in="SourceAlpha" values="0 0 0 0 0 0 0 0 0 0 0 0 0 0 0 0 0 0 127 0" result="hardAlpha"/>
            <feOffset dy="3"/>
            <feGaussianBlur stdDeviation="2"/>
            <feColorMatrix values="0 0 0 0 0.748125 0 0 0 0 0.767812 0 0 0 0 0.7875 0 0 0 0.18 0"/>
            <feBlend in2="effect1_dropShadow_5371_35481" result="effect2_dropShadow_5371_35481"/>
            <feColorMatrix in="SourceAlpha" values="0 0 0 0 0 0 0 0 0 0 0 0 0 0 0 0 0 0 127 0" result="hardAlpha"/>
            <feOffset dy="2"/>
            <feGaussianBlur stdDeviation="2"/>
            <feColorMatrix values="0 0 0 0 0.748125 0 0 0 0 0.767812 0 0 0 0 0.7875 0 0 0 0.2 0"/>
            <feBlend in2="effect2_dropShadow_5371_35481" result="effect3_dropShadow_5371_35481"/>
            <feBlend in="SourceGraphic" in2="effect3_dropShadow_5371_35481" result="shape"/>
        </filter>
    </defs>
</svg>
